<svg xmlns="http://www.w3.org/2000/svg" width="37.221" height="39.338" viewBox="0 0 37.221 39.338">
  <path id="uncharted" d="M25.93,49.631a.474.474,0,0,0,.439-.29,4.223,4.223,0,0,1,1.308-2.221.43.43,0,0,0,.149-.36.369.369,0,0,0-.184-.29l-10.256-6,6.55-3.82a.869.869,0,0,0,.439-.729.8.8,0,0,0-.439-.729L21.97,34.072a.852.852,0,0,0-.834,0l-8.8,5.093a.869.869,0,0,0-.439.729V50a.8.8,0,0,0,.439.729L14.3,51.853a.773.773,0,0,0,.439.105.825.825,0,0,0,.58-.22.948.948,0,0,0,.255-.615v-7.49L25.754,49.6a.4.4,0,0,0,.176.035ZM39.241,62.355a1.1,1.1,0,0,0-.439.105l-6.542,3.784V54.47a.418.418,0,0,0-.544-.4,4.654,4.654,0,0,1-2.546.035.43.43,0,0,0-.544.4v11.7l-6.542-3.784a.773.773,0,0,0-.439-.105.843.843,0,0,0-.834.834v2.292a.8.8,0,0,0,.439.729l8.8,5.058a.773.773,0,0,0,.43.105.966.966,0,0,0,.439-.105l8.8-5.058a.869.869,0,0,0,.439-.729V63.154A1.027,1.027,0,0,0,39.241,62.355ZM35.966,36.039a2.02,2.02,0,1,0-2.02-2.02A2.02,2.02,0,0,0,35.966,36.039Zm5.584-.887a2.02,2.02,0,1,0,2.02,2.02A2.02,2.02,0,0,0,41.551,35.152ZM47.1,42.5a2.02,2.02,0,1,0-2.02-2.02A2.02,2.02,0,0,0,47.1,42.5Zm-5.549-.808a2.02,2.02,0,1,0,2.02,2.02,2.02,2.02,0,0,0-2.02-2.02ZM35.966,49a2.02,2.02,0,1,0-2.02-2.02A2.02,2.02,0,0,0,35.966,49Zm-5.453,3.2a2.02,2.02,0,1,0-2.02-2.02,2.02,2.02,0,0,0,2.02,2.02ZM47.1,44.96a2.02,2.02,0,1,0,2.02,2.02,2.02,2.02,0,0,0-2.02-2.02Zm0,6.348a2.02,2.02,0,1,0,2.02,2.02,2.02,2.02,0,0,0-2.02-2.02Z" transform="translate(-11.898 -32)" fill="#fff"/>
</svg>
